<svg enable-background="new 0 0 512 512" viewBox="0 0 512 512" xmlns="http://www.w3.org/2000/svg"><path d="m480.6 43.5h-66.4v-12.1c0-11.3-9.1-20.4-20.4-20.4s-20.4 9.1-20.4 20.4v12.1h-234.8v-12.1c0-11.3-9.1-20.4-20.4-20.4s-20.4 9.1-20.4 20.4v12.1h-66.4c-11.3 0-20.4 9.2-20.4 20.5v416.6c0 11.3 9.1 20.4 20.4 20.4h449.2c11.3 0 20.4-9.1 20.4-20.4v-416.6c0-11.3-9.1-20.5-20.4-20.5zm-20.4 416.7h-408.4v-375.8h45.9v12.1c0 11.3 9.1 20.4 20.4 20.4s20.4-9.1 20.4-20.4v-12.1h234.8v12.1c0 11.3 9.1 20.4 20.4 20.4s20.4-9.1 20.4-20.4v-12.1h45.9v375.8z"/><path d="m135.9 192.1h-21.5c-11.3 0-20.4 9.1-20.4 20.4s9.1 20.4 20.4 20.4h21.5c11.3 0 20.4-9.1 20.4-20.4 0-11.2-9.1-20.4-20.4-20.4z"/><path d="m266.8 192.1h-21.5c-11.3 0-20.4 9.1-20.4 20.4s9.1 20.4 20.4 20.4h21.5c11.3 0 20.4-9.1 20.4-20.4 0-11.2-9.2-20.4-20.4-20.4z"/><path d="m397.6 192.1h-21.5c-11.3 0-20.4 9.1-20.4 20.4s9.1 20.4 20.4 20.4h21.5c11.3 0 20.4-9.1 20.4-20.4 0-11.2-9.1-20.4-20.4-20.4z"/><path d="m135.9 284h-21.5c-11.3 0-20.4 9.1-20.4 20.4s9.1 20.4 20.4 20.4h21.5c11.3 0 20.4-9.1 20.4-20.4s-9.1-20.4-20.4-20.4z"/><path d="m266.8 284h-21.5c-11.3 0-20.4 9.1-20.4 20.4s9.1 20.4 20.4 20.4h21.5c11.3 0 20.4-9.1 20.4-20.4s-9.2-20.4-20.4-20.4z"/><path d="m397.6 284h-21.5c-11.3 0-20.4 9.1-20.4 20.4s9.1 20.4 20.4 20.4h21.5c11.3 0 20.4-9.1 20.4-20.4s-9.1-20.4-20.4-20.4z"/><path d="m135.9 375.9h-21.5c-11.3 0-20.4 9.1-20.4 20.4s9.1 20.4 20.4 20.4h21.5c11.3 0 20.4-9.1 20.4-20.4s-9.1-20.4-20.4-20.4z"/><path d="m266.8 375.9h-21.5c-11.3 0-20.4 9.1-20.4 20.4s9.1 20.4 20.4 20.4h21.5c11.3 0 20.4-9.1 20.4-20.4s-9.2-20.4-20.4-20.4z"/><path d="m397.6 375.9h-21.5c-11.3 0-20.4 9.1-20.4 20.4s9.1 20.4 20.4 20.4h21.5c11.3 0 20.4-9.1 20.4-20.4s-9.1-20.4-20.4-20.4z"/></svg>