<svg enable-background="new 0 0 217.929 217.929" viewBox="0 0 217.929 217.929" xmlns="http://www.w3.org/2000/svg"><path d="m212.39 101.703c5.023-4.897 6.797-12.083 4.629-18.755s-7.827-11.443-14.769-12.452l-52.969-7.697c-.097-.014-.18-.075-.223-.162l-23.687-47.997c-3.104-6.291-9.391-10.2-16.407-10.2s-13.302 3.909-16.406 10.2l-23.688 47.997c-.043.087-.126.147-.223.162l-52.968 7.697c-6.942 1.009-12.601 5.78-14.769 12.452s-.394 13.858 4.629 18.755l38.328 37.361c.07.068.102.166.085.262l-9.048 52.755c-1.186 6.914 1.604 13.771 7.279 17.894 5.676 4.125 13.059 4.657 19.268 1.393l47.376-24.907c.086-.046.19-.045.276 0l47.376 24.907c2.701 1.42 5.623 2.121 8.531 2.121 3.777 0 7.53-1.184 10.736-3.514 5.675-4.123 8.464-10.98 7.279-17.895l-9.048-52.754c-.017-.096.016-.194.085-.262zm-56.155 40.665 9.048 52.754c.024.14.031.182-.118.29s-.187.088-.312.022l-47.377-24.908c-5.33-2.801-11.695-2.801-17.027 0l-47.376 24.907c-.125.065-.163.086-.312-.022s-.142-.15-.118-.289l9.048-52.755c1.018-5.936-.949-11.989-5.262-16.194l-38.326-37.36c-.101-.099-.132-.128-.075-.303s.099-.181.239-.202l52.968-7.697c5.961-.866 11.111-4.607 13.776-10.008l23.688-47.998c.063-.126.081-.165.265-.165s.203.039.265.165l23.688 47.998c2.666 5.401 7.815 9.143 13.776 10.008l52.968 7.697c.14.021.182.027.239.202s.026.205-.075.303l-38.328 37.361c-4.312 4.204-6.279 10.258-5.262 16.194z"/></svg>