<svg xmlns="http://www.w3.org/2000/svg" xmlns:xlink="http://www.w3.org/1999/xlink"><symbol id="icon-calendar" viewBox="0 0 512 512"><path d="m480.6 43.5h-66.4v-12.1c0-11.3-9.1-20.4-20.4-20.4s-20.4 9.1-20.4 20.4v12.1h-234.8v-12.1c0-11.3-9.1-20.4-20.4-20.4s-20.4 9.1-20.4 20.4v12.1h-66.4c-11.3 0-20.4 9.2-20.4 20.5v416.6c0 11.3 9.1 20.4 20.4 20.4h449.2c11.3 0 20.4-9.1 20.4-20.4v-416.6c0-11.3-9.1-20.5-20.4-20.5zm-20.4 416.7h-408.4v-375.8h45.9v12.1c0 11.3 9.1 20.4 20.4 20.4s20.4-9.1 20.4-20.4v-12.1h234.8v12.1c0 11.3 9.1 20.4 20.4 20.4s20.4-9.1 20.4-20.4v-12.1h45.9v375.8z"/><path d="m135.9 192.1h-21.5c-11.3 0-20.4 9.1-20.4 20.4s9.1 20.4 20.4 20.4h21.5c11.3 0 20.4-9.1 20.4-20.4 0-11.2-9.1-20.4-20.4-20.4z"/><path d="m266.8 192.1h-21.5c-11.3 0-20.4 9.1-20.4 20.4s9.1 20.4 20.4 20.4h21.5c11.3 0 20.4-9.1 20.4-20.4 0-11.2-9.2-20.4-20.4-20.4z"/><path d="m397.6 192.1h-21.5c-11.3 0-20.4 9.1-20.4 20.4s9.1 20.4 20.4 20.4h21.5c11.3 0 20.4-9.1 20.4-20.4 0-11.2-9.1-20.4-20.4-20.4z"/><path d="m135.9 284h-21.5c-11.3 0-20.4 9.1-20.4 20.4s9.1 20.4 20.4 20.4h21.5c11.3 0 20.4-9.1 20.4-20.4s-9.1-20.4-20.4-20.4z"/><path d="m266.8 284h-21.5c-11.3 0-20.4 9.1-20.4 20.4s9.1 20.4 20.4 20.4h21.5c11.3 0 20.4-9.1 20.4-20.4s-9.2-20.4-20.4-20.4z"/><path d="m397.6 284h-21.5c-11.3 0-20.4 9.1-20.4 20.4s9.1 20.4 20.4 20.4h21.5c11.3 0 20.4-9.1 20.4-20.4s-9.1-20.4-20.4-20.4z"/><path d="m135.9 375.9h-21.5c-11.3 0-20.4 9.1-20.4 20.4s9.1 20.4 20.4 20.4h21.5c11.3 0 20.4-9.1 20.4-20.4s-9.1-20.4-20.4-20.4z"/><path d="m266.8 375.9h-21.5c-11.3 0-20.4 9.1-20.4 20.4s9.1 20.4 20.4 20.4h21.5c11.3 0 20.4-9.1 20.4-20.4s-9.2-20.4-20.4-20.4z"/><path d="m397.6 375.9h-21.5c-11.3 0-20.4 9.1-20.4 20.4s9.1 20.4 20.4 20.4h21.5c11.3 0 20.4-9.1 20.4-20.4s-9.1-20.4-20.4-20.4z"/></symbol><symbol id="icon-comment" viewBox="0 0 512 512"><path d="M256 32C114.6 32 0 125.1 0 240c0 47.6 19.9 91.2 52.9 126.3C38 405.7 7 439.1 6.5 439.5c-6.6 7-8.4 17.2-4.6 26S14.4 480 24 480c61.5 0 110-25.7 139.1-46.3C192 442.8 223.2 448 256 448c141.4 0 256-93.1 256-208S397.4 32 256 32zm0 368c-26.7 0-53.1-4.1-78.4-12.1l-22.7-7.2-19.5 13.8c-14.3 10.1-33.9 21.4-57.5 29 7.3-12.1 14.4-25.7 19.9-40.2l10.6-28.1-20.6-21.8C69.7 314.1 48 282.2 48 240c0-88.2 93.3-160 208-160s208 71.8 208 160-93.3 160-208 160z"/></symbol><symbol id="icon-eye" viewBox="0 0 512 512"><path d="m497.6 244.7c-63.9-96.7-149.7-150-241.6-150s-177.7 53.3-241.6 150c-4.5 6.8-4.5 15.7 0 22.5 63.9 96.7 149.7 150 241.6 150s177.7-53.3 241.6-150c4.5-6.8 4.5-15.6 0-22.5zm-241.6 131.7c-74.2 0-144.8-42.6-199.9-120.4 55-77.8 125.6-120.4 199.9-120.4 74.2 0 144.8 42.6 199.9 120.4-55.1 77.8-125.6 120.4-199.9 120.4z"/><path d="m256 148.5c-59.3 0-107.5 48.2-107.5 107.5s48.2 107.5 107.5 107.5 107.5-48.2 107.5-107.5-48.2-107.5-107.5-107.5zm0 175.5c-36.8 0-66.8-30.5-66.8-68s30-68 66.8-68 66.8 30.5 66.8 68-30 68-66.8 68z"/></symbol><symbol id="icon-gear" viewBox="0 0 92 92"><path d="m46 65.3c-10.6 0-19.3-8.6-19.3-19.3 0-10.6 8.6-19.3 19.3-19.3 10.6 0 19.3 8.6 19.3 19.3 0 10.6-8.7 19.3-19.3 19.3zm0-31.5c-6.7 0-12.2 5.5-12.2 12.2s5.5 12.2 12.2 12.2 12.2-5.5 12.2-12.2-5.5-12.2-12.2-12.2zm0 58.2h-.5c-3.5 0-6.5-.4-6.7-.4-1.6-.2-2.8-1.4-3.1-3l-1-7.2c-2.2-.7-4.3-1.6-6.3-2.7l-5.6 4.3c-1.3 1-3 .9-4.3 0-.1-.1-2.5-2-5-4.4l-.4-.4c-2.5-2.5-4.3-4.9-4.4-5-1-1.3-1-3 0-4.3l4.4-5.8c-1.1-2-1.9-4.2-2.6-6.4l-7-1c-1.6-.2-2.8-1.5-3-3.1-.1-.1-.5-3.1-.5-6.6v-.5c0-3.5.4-6.5.4-6.7.2-1.6 1.4-2.8 3-3.1l7.2-1c.7-2.2 1.6-4.3 2.7-6.3l-4.3-5.6c-1-1.3-.9-3 0-4.3.1-.1 2-2.5 4.4-5l.4-.4c2.5-2.5 4.9-4.3 5-4.4 1.3-1 3-1 4.3 0l5.8 4.4c2-1.1 4.2-1.9 6.4-2.6l1-7c.2-1.6 1.5-2.8 3.1-3 .1-.1 3.1-.5 6.6-.5h.5c3.5 0 6.5.4 6.7.4 1.6.2 2.8 1.4 3.1 3l1 7.2c2.2.7 4.3 1.6 6.3 2.7l5.6-4.3c1.3-1 3-.9 4.3 0 .1.1 2.5 2 5 4.4l.4.4c2.5 2.5 4.3 4.9 4.4 5 1 1.3 1 3 0 4.3l-4.3 5.8c1.1 2 1.9 4.2 2.6 6.4l7 1c1.6.2 2.8 1.5 3 3.1 0 .1.4 3.2.4 6.7v.5c0 3.5-.4 6.5-.4 6.7-.2 1.6-1.4 2.8-3 3.1l-7.2 1c-.7 2.2-1.6 4.3-2.7 6.3l4.3 5.7c1 1.3.9 3 0 4.3-.1.1-2 2.5-4.4 5l-.4.4c-2.5 2.5-4.9 4.3-5 4.4-1.3 1-3 1-4.3 0l-5.8-4.5c-2 1.1-4.2 1.9-6.4 2.6l-1 7c-.2 1.6-1.5 2.8-3.1 3-.1 0-3.1.4-6.6.4zm-3.6-7.2c.9.1 2 .1 3.1.1h.5c1.1 0 2.2 0 3.1-.1l.9-6.6c.2-1.5 1.3-2.6 2.7-3 3.1-.7 6.1-1.9 8.8-3.6.8-.5 1.8-.6 2.7-.4.5.1 1 .4 1.4.7l5.3 4c.7-.6 1.5-1.3 2.3-2.1l.4-.4c.8-.8 1.5-1.6 2.1-2.3l-4-5.3c-.9-1.2-.9-2.8-.2-4 1.7-2.6 2.9-5.5 3.6-8.5.3-1.5 1.5-2.7 3-2.9l6.7-.9c.1-.9.1-2 .1-3.1v-.4c0-1.1 0-2.2-.1-3.1l-6.6-.9c-1.4-.2-2.6-1.3-3-2.7-.7-3.1-1.9-6-3.5-8.7-.2-.2-.3-.5-.4-.8-.4-1.1-.2-2.4.5-3.3l4.1-5.4c-.6-.7-1.3-1.5-2.1-2.3l-.4-.4c-.8-.8-1.6-1.5-2.3-2.1l-5.3 4c-1.3.9-3 .9-4.2 0-2.6-1.6-5.5-2.8-8.5-3.6-1.4-.3-2.5-1.5-2.7-3l-.9-6.7c-.9-.1-2-.1-3.1-.1h-.4c-1.1 0-2.2 0-3.1.1l-.9 6.8c-.2 1.6-1.4 2.8-3 3-3 .7-5.9 1.9-8.5 3.5-.8.5-1.8.6-2.7.4-.5-.1-1-.4-1.4-.7l-5.2-4c-.7.6-1.5 1.3-2.3 2.1l-.4.4c-.8.8-1.5 1.6-2.1 2.3l4 5.3c.9 1.2.9 2.7.2 4-.1.1-.1.2-.2.3-1.6 2.6-2.8 5.5-3.5 8.5-.3 1.4-1.5 2.5-3 2.7l-6.7.9c-.1.9-.1 2-.1 3.1v.4c0 1.1 0 2.2.1 3.1l6.6.9c1.6.2 2.8 1.4 3 3v.1c.7 3 1.9 5.8 3.5 8.4.5.9.7 2 .3 3-.1.4-.4.8-.7 1.2l-3.9 5.2c.6.7 1.3 1.5 2.1 2.3l.4.4c.8.8 1.6 1.5 2.3 2.1l5.3-4c1.3-1 3.2-.9 4.4.1 2.6 1.6 5.4 2.7 8.3 3.5 1.4.3 2.5 1.5 2.7 3z"/></symbol><symbol id="icon-heart" viewBox="0 0 485.3 485.3"><path d="m349.6 28.95c-36.3 0-70.5 14.2-96.2 39.9l-10.6 10.6-10.8-10.8c-25.7-25.7-59.9-39.9-96.2-39.9-36.2 0-70.3 14.1-96 39.8s-39.8 59.8-39.8 96.1 14.2 70.4 39.9 96.1l190.5 190.5.4.4c3.3 3.3 7.7 4.9 12 4.9 4.4 0 8.8-1.7 12.1-5l190.5-190.5c25.7-25.7 39.9-59.8 39.9-96.1s-14.1-70.5-39.8-96.1c-25.6-25.8-59.7-39.9-95.9-39.9zm71.6 207.8-178.3 178.4-178.7-178.7c-19.2-19.2-29.8-44.7-29.9-71.9 0-27.1 10.5-52.6 29.7-71.8 19.2-19.1 44.7-29.7 71.7-29.7 27.2 0 52.7 10.6 72 29.9l22.9 22.9c6.4 6.4 17.8 6.4 24.3 0l22.8-22.8c19.2-19.2 44.8-29.8 71.9-29.8s52.6 10.6 71.8 29.8 29.8 44.7 29.7 71.9c0 27.1-10.6 52.6-29.9 71.8z"/></symbol><symbol id="icon-mail" viewBox="0 0 474 474">
    <path fill="#8a91b5" d="m437.5 59.3h-401c-20.1 0-36.5 16.4-36.5 36.5v282.4c0 20.1 16.4 36.5 36.5 36.5h401c20.1 0 36.5-16.4 36.5-36.5v-282.4c0-20.1-16.4-36.5-36.5-36.5zm-5.3 27-192.7 164.8-192.7-164.8zm14.8 291.9c0 5.2-4.3 9.5-9.5 9.5h-401c-5.2 0-9.5-4.3-9.5-9.5v-273.3l203.7 174.2c.1.1.3.2.4.3s.3.2.4.3c.3.2.5.4.8.5.1.1.2.1.3.2.4.2.8.4 1.2.6.1 0 .2.1.3.1.3.1.6.3 1 .4.1 0 .3.1.4.1.3.1.6.2.9.2.1 0 .3.1.4.1.3.1.7.1 1 .2h.3c.4 0 .9.1 1.3.1.4 0 .9 0 1.3-.1h.3c.3 0 .7-.1 1-.2.1 0 .3-.1.4-.1.3-.1.6-.2.9-.2.1 0 .3-.1.4-.1.3-.1.6-.2 1-.4.1 0 .2-.1.3-.1.4-.2.8-.4 1.2-.6.1-.1.2-.1.3-.2.3-.2.5-.3.8-.5.1-.1.3-.2.4-.3s.3-.2.4-.3l198.9-169.9z"/>
</symbol><symbol id="icon-paperplane" viewBox="0 0 189.473 189.473"><path d="m152.531 179.476c-1.48 0-2.95-.438-4.211-1.293l-47.641-32.316-25.552 18.386c-2.004 1.441-4.587 1.804-6.914.972-2.324-.834-4.089-2.759-4.719-5.146l-12.83-48.622-45.843-17.529c-2.886-1.104-4.8-3.865-4.821-6.955-.021-3.09 1.855-5.877 4.727-7.02l174.312-69.36c.791-.336 1.628-.53 2.472-.582.302-.018.605-.018.906-.001 1.748.104 3.465.816 4.805 2.13.139.136.271.275.396.42 1.11 1.268 1.72 2.814 1.835 4.389.028.396.026.797-.009 1.198-.024.286-.065.571-.123.854l-29.423 154.379c-.473 2.48-2.161 4.556-4.493 5.523-.925.384-1.902.573-2.874.573zm-47.669-48.897 42.437 28.785 22.894-120.124-82.687 79.566 17.156 11.638c.069.043.135.089.2.135zm-35.327-6.401 5.682 21.53 12.242-8.809-16.03-10.874c-.745-.504-1.383-1.132-1.894-1.847zm-41.399-37.396 31.478 12.035c2.255.862 3.957 2.758 4.573 5.092l3.992 15.129c.183-1.745.974-3.387 2.259-4.624l78.789-75.814z"/></symbol><symbol id="icon-star" viewBox="0 0 217.929 217.929"><path d="m212.39 101.703c5.023-4.897 6.797-12.083 4.629-18.755s-7.827-11.443-14.769-12.452l-52.969-7.697c-.097-.014-.18-.075-.223-.162l-23.687-47.997c-3.104-6.291-9.391-10.2-16.407-10.2s-13.302 3.909-16.406 10.2l-23.688 47.997c-.043.087-.126.147-.223.162l-52.968 7.697c-6.942 1.009-12.601 5.78-14.769 12.452s-.394 13.858 4.629 18.755l38.328 37.361c.07.068.102.166.085.262l-9.048 52.755c-1.186 6.914 1.604 13.771 7.279 17.894 5.676 4.125 13.059 4.657 19.268 1.393l47.376-24.907c.086-.046.19-.045.276 0l47.376 24.907c2.701 1.42 5.623 2.121 8.531 2.121 3.777 0 7.53-1.184 10.736-3.514 5.675-4.123 8.464-10.98 7.279-17.895l-9.048-52.754c-.017-.096.016-.194.085-.262zm-56.155 40.665 9.048 52.754c.024.14.031.182-.118.29s-.187.088-.312.022l-47.377-24.908c-5.33-2.801-11.695-2.801-17.027 0l-47.376 24.907c-.125.065-.163.086-.312-.022s-.142-.15-.118-.289l9.048-52.755c1.018-5.936-.949-11.989-5.262-16.194l-38.326-37.36c-.101-.099-.132-.128-.075-.303s.099-.181.239-.202l52.968-7.697c5.961-.866 11.111-4.607 13.776-10.008l23.688-47.998c.063-.126.081-.165.265-.165s.203.039.265.165l23.688 47.998c2.666 5.401 7.815 9.143 13.776 10.008l52.968 7.697c.14.021.182.027.239.202s.026.205-.075.303l-38.328 37.361c-4.312 4.204-6.279 10.258-5.262 16.194z"/></symbol><symbol id="icon-stat" viewBox="0 0 92 92"><path d="m6 82c-.9 0-1.8-.2-2.6-.7-2.4-1.4-3.1-4.5-1.7-6.9l12.2-20.4c.9-1.4 2.4-2.4 4.1-2.4 1.7-.1 3.3.7 4.3 2.1l5.2 7.2 11-18.8c.8-1.4 2.4-2.4 4-2.5 1.7-.1 3.3.7 4.3 2l9.6 12.9 25.3-42c1.4-2.4 4.5-3.1 6.9-1.7s3.1 4.5 1.7 6.9l-29.1 48.3c-.9 1.4-2.4 2.3-4 2.4-1.7.1-3.3-.7-4.3-2l-9.6-12.8-11.1 18.8c-.9 1.5-2.4 2.4-4.1 2.5s-3.3-.7-4.3-2.1l-5.2-7.2-8.3 13.9c-.9 1.6-2.6 2.5-4.3 2.5z"/></symbol><symbol id="icon-user" viewBox="0 0 490.947 490.947"><path d="m153.373 220.015c5.3 9.1 12.1 17.8 20.4 25.1 8.2 7.3 17.9 13.2 28.2 16.8 11.7 4.3 22.9 4.5 30.4 3 7.5-2 11.6-5.2 10.8-9.8-1.4-8.6-15-13.8-30.2-21.3-13.9-6.8-23.9-18.8-30.5-33.4-6.7-14.6-10.1-31.4-12-48.5-.8-6.9-1.2-13.9-1.3-20.9-.1-3.5-.1-7 0-10.4l.2-5.1.4-5.8.8-10c.1-3.4 1.2-6.4 1.7-9.7l.9-4.8 1.5-4.5c1.1-3 1.7-6.2 3.3-8.8 5-11.4 13-20.9 23.4-27.6 10.3-6.9 23.2-10.8 36.2-12.1 11.7.7 23.6 3.3 33.8 7.8 10.3 4.5 19 10.7 25.5 18.6 6.6 7.9 11 17.6 14 28.2.8 5.4 2.4 9.3 2.8 16.9l1 10.2c.2 2.5.4 5.8.5 8.8.7 24.8-2.1 50.6-11.3 71.5-2.3 5.2-5 10-8.1 14.4-3.1 4.3-6.6 8-10.5 11.3-7.8 6.1-17.3 10.4-27.6 11.7-.8.1-1.7.4-2.7.9s-1.8 1.2-3.3 1.9c-2.7 1.3-5.2 2.9-6.3 4.2-4.5 5 2 9.2 11.2 11.3 7.6 1.8 16.2 1.8 25 .2 8.9-1.6 17.9-5.7 26-11.5 16.4-11.8 27.7-30.9 33.8-50.3 7.4-23.6 9.9-47.6 9.5-71.9 0-2.9-.3-6.6-.5-9.2l-.6-8.5c0-5.2-1.7-12.6-2.9-19.1-.5-3.4-1.7-6.5-2.7-9.7-1.1-3.2-2-6.3-3.3-9.5-3.1-6.1-5.7-12.4-10-18-7.8-11.5-18.5-21.5-30.7-28.2-12.1-6.8-25.3-11.1-38.5-12.9-6.6-1-13.3-1.4-19.8-1.3-7 .1-13.5.9-20.1 2.2-13.1 2.6-26.2 7.5-37.8 15.2-11.8 7-22.7 16.5-30.4 28.2-12.6 18.3-17.9 39.5-19.5 59.4l-.4 3.8-.2 1.9c-.1 1 .1-1.3.1-1.1v.1.1.2l-.1.5-.1 1.1c-.2 2.6-.4 5-.5 7.5-.2 4.9-.3 9.7-.3 14.5.1 9.7.8 19.3 2.2 29 2.7 19.4 8 39.1 18.6 57.4z"/><path d="m456.073 382.915c-.2-5.7-.7-11.7-1.5-17.8-1.7-12.2-5.3-25.4-13.3-37.8s-21.2-22.2-34.7-26.7l-.2-.1c-.4-.1-.9-.3-1.3-.4-22.5-5.8-44.6-15.6-65-27.7-4.9-2.8-14.2-4.6-17.8-4.1-1.7.3-2.9.9-3.5 1.9s-.6 2.3-.2 3.8c.9 3.1 3.9 7.2 8.1 11.4 17.5 18 41.6 34.3 70.9 44.5l-.9-.3c11.8 5.6 18.9 15 22.3 28.5 2.8 10.1 3 22.1 2.8 34.3-.2 6-.6 12.2-1.2 18-.3 2.9-.7 5.8-1.3 8.4-.1.4-.1.7-.2 1-.5.3-1 .5-1.4.7-2.3 1.1-4.5 2.3-6.8 3.3-4.6 2.2-9.4 4.1-14.1 6.1-9.6 3.8-19.4 7.2-29.4 10.1-19.9 5.9-40.4 10.2-61.1 13-5.1.9-10.4 1.2-15.6 1.8-5.2.7-10.4 1-15.6 1.3s-10.4.8-15.7.8l-15.3.4c-10.9-.2-22.1-.2-32.1-.9l-7.7-.4-7.8-.7c-5.2-.5-10.5-.8-15.7-1.6-6.6-1.3-13.2-2.4-19.7-4.1l-9.8-2.3-9.7-2.7c-13.4-3.8-26.6-8.1-39.4-13.4-6.4-2.6-12.7-5.4-18.8-8.3-3-1.5-6.1-3-9-4.6-.5-.3-.9-.5-1.4-.8-.2-1.5-.4-3-.6-4.6-.5-4.5-.7-9.4-.9-14.3-.3-9.6.1-19.8 1.1-28.3 1.1-8.7 3.4-16.2 6.8-21.7 3.5-5.4 7.9-9.1 14.4-11.8l-1.5.4c18.3-5.2 35.5-12.5 51.7-21.1 23.5-12.5 39.3-29 32.4-35.4-6.2-5.8-23.6-1.1-46.4 8.6-15 6.4-30.5 11.5-46.1 14.9-.2 0-.4.1-.6.2l-.6.2c-8.9 2.9-17.8 7.8-25 14.8-7.2 6.9-12.3 15.5-15.7 24-3.4 8.6-5.2 17.2-6.2 25.5-.5 4.2-.8 8.2-1 12.2l-.2 5.7-.1 2.8v3.3c.1 6.7.3 13.4 1 20.3.3 3.5.7 6.9 1.4 10.7s1.4 7.5 3.3 12.5l.1.2c1.2 3 3.2 5.6 6.2 7.4 2.3 1.4 4 2.4 5.9 3.4 1.9 1.1 3.7 2 5.6 3 3.7 2 7.5 3.6 11.2 5.4 7.5 3.3 15.1 6.4 22.8 9.2 15.3 5.5 30.9 10.1 46.7 13.5 7.9 1.9 15.8 3.1 23.8 4.7 8 1 15.9 2.5 24 3.2 8 .8 16 1.6 24.2 1.9l12.2.6 11.7.1c-.6-.3-1.2-.7-1.8-1 .6.3 1.2.7 1.8 1 17.5 2 35 2.2 52.7 1.7 17.6-1 35.4-2.7 53-6.2 17.6-3.4 35-7.9 52.1-13.9 8.5-3 17-6.3 25.4-10.1 4.2-1.8 8.3-3.9 12.5-6 2.1-1.1 4.1-2.1 6.2-3.3 2.2-1.2 4-2.2 6.7-3.9l.3-.2c3.3-2.1 6-5.2 7.4-9.2 3.2-8.9 3.7-14.6 4.4-20.7.6-6 .9-11.7 1.1-17.4.1-2.8.1-5.6.1-8.6z"/></symbol></svg>