<svg enable-background="new 0 0 474 474" viewBox="0 0 474 474" xmlns="http://www.w3.org/2000/svg"><path d="m437.5 59.3h-401c-20.1 0-36.5 16.4-36.5 36.5v282.4c0 20.1 16.4 36.5 36.5 36.5h401c20.1 0 36.5-16.4 36.5-36.5v-282.4c0-20.1-16.4-36.5-36.5-36.5zm-5.3 27-192.7 164.8-192.7-164.8zm14.8 291.9c0 5.2-4.3 9.5-9.5 9.5h-401c-5.2 0-9.5-4.3-9.5-9.5v-273.3l203.7 174.2c.1.1.3.2.4.3s.3.2.4.3c.3.2.5.4.8.5.1.1.2.1.3.2.4.2.8.4 1.2.6.1 0 .2.1.3.1.3.1.6.3 1 .4.1 0 .3.1.4.1.3.1.6.2.9.2.1 0 .3.1.4.1.3.1.7.1 1 .2h.3c.4 0 .9.1 1.3.1.4 0 .9 0 1.3-.1h.3c.3 0 .7-.1 1-.2.1 0 .3-.1.4-.1.3-.1.6-.2.9-.2.1 0 .3-.1.4-.1.3-.1.6-.2 1-.4.1 0 .2-.1.3-.1.4-.2.8-.4 1.2-.6.1-.1.2-.1.3-.2.3-.2.5-.3.8-.5.1-.1.3-.2.4-.3s.3-.2.4-.3l198.9-169.9z"/></svg>